<?xml version="1.0"?>

<svg width="100%" height="100%" viewBox="0 0 258 258" version="1.1" xmlns="http://www.w3.org/2000/svg" xmlns:xlink="http://www.w3.org/1999/xlink" xml:space="preserve" xmlns:serif="http://www.serif.com/" style="fill-rule:evenodd;clip-rule:evenodd;stroke-miterlimit:2;">
    <g transform="matrix(1,0,0,1,-324.270203,-238.270203)">
        <g transform="matrix(1,0,0,1,3,23)">
            <rect x="323.407" y="217.407" width="253.186" height="253.186" style="fill:none;stroke:white;stroke-width:1.91px;"></rect>
            <path d="M457.824,272.052L442.376,272.052L387.747,415.948L401.437,415.948L421.028,362.514L440.785,308.879C441.712,305.995 443.237,301.455 445.393,295.256C447.547,289.056 448.939,285.112 449.603,283.422L450.596,283.422C451.359,285.776 452.817,289.919 454.971,295.853C457.127,301.787 458.685,306.128 459.58,308.879L478.972,362.514L498.563,415.948L512.253,415.948L457.824,272.052Z" style="fill:white;fill-rule:nonzero;"></path>
        </g>
    </g>
</svg>