<?xml version="1.0" encoding="UTF-8" standalone="no"?><svg width="100%" height="100%" viewBox="0 0 2510 790" version="1.1" xmlns="http://www.w3.org/2000/svg" xmlns:xlink="http://www.w3.org/1999/xlink" xml:space="preserve" xmlns:serif="http://www.serif.com/" style="fill-rule:evenodd;clip-rule:evenodd;stroke-linejoin:round;stroke-miterlimit:2;"><rect x="0" y="0" width="789.013" height="789.012" style="fill:#a45a45;fill-rule:nonzero;"></rect><path d="M418.888,170.294l-48.141,0l-170.241,448.428l42.662,0l61.053,-166.519l61.566,-167.144c2.891,-8.988 7.641,-23.137 14.363,-42.456c6.712,-19.319 11.05,-31.609 13.119,-36.875l3.097,0c2.375,7.334 6.919,20.247 13.634,38.737c6.719,18.491 11.569,32.019 14.359,40.594l60.431,167.144l61.053,166.519l42.663,0l-169.619,-448.428Z" style="fill:#fff;fill-rule:nonzero;"></path><g><g><path d="M1198.679,161.429l-48.85,0l-172.729,454.896l43.326,0l61.853,-168.932l62.601,-169.507c2.819,-9.091 7.71,-23.418 14.557,-43.039c6.732,-19.62 11.22,-32.049 13.234,-37.515l3.05,0c2.474,7.48 7.192,20.599 13.982,39.414c6.847,18.7 11.738,32.394 14.557,41.197l61.278,169.507l61.853,168.932l43.326,0l-172.039,-454.896l0,-0.058Z" style="fill:#102026;fill-rule:nonzero;"></path><path d="M1462.664,389.222c0,-74.282 17.722,-132.683 53.223,-175.146c35.501,-42.521 81.474,-63.752 138.034,-63.752c35.098,0 64.673,9.609 88.839,28.769c24.166,19.16 42.003,41.6 53.51,67.147l-33.43,12.371c-26.41,-49.943 -62.947,-74.915 -109.553,-74.915c-46.606,0 -82.337,18.757 -109.553,56.33c-27.216,37.572 -40.852,87.285 -40.852,149.139c0,61.853 13.809,112.947 41.485,149.484c27.618,36.537 63.982,54.776 108.92,54.776c28.481,0 52.82,-7.653 73.016,-22.9c20.196,-15.248 35.674,-34.465 46.433,-57.538l35.271,11.738c-13.637,29.287 -33.084,53.741 -58.516,73.361c-25.374,19.62 -57.25,29.402 -95.628,29.402c-56.502,0 -102.533,-21.174 -138.034,-63.465c-35.501,-42.291 -53.223,-100.577 -53.223,-174.858l0.058,0.058Z" style="fill:#102026;fill-rule:nonzero;"></path><rect x="1953.867" y="161.486" width="39.011" height="454.896" style="fill:#102026;fill-rule:nonzero;"></rect><path d="M2198.519,616.44l-0,-454.954l170.198,0c42.923,0 77.044,11.968 102.418,35.904c25.374,23.936 38.09,55.697 38.09,95.341c0,39.644 -13.004,72.958 -39.011,96.261c-26.007,23.303 -59.84,34.983 -101.497,34.983l-131.187,0l0,192.465l-39.011,0Zm38.953,-225.377l123.764,0c33.43,0 59.725,-8.228 78.942,-24.741c19.16,-16.513 28.769,-41.082 28.769,-73.649c0,-32.567 -9.494,-55.524 -28.481,-72.44c-18.988,-16.916 -45.8,-25.374 -80.438,-25.374l-122.556,0l0,196.205Z" style="fill:#102026;fill-rule:nonzero;"></path></g></g></svg>