<?xml version="1.0" encoding="UTF-8"?>
<svg xmlns="http://www.w3.org/2000/svg" id="Capa_1" data-name="Capa 1" viewBox="0 0 900 340.76">
  <defs>
    
  </defs>
  <g>
    <g>
      <line class="cls-3" x1="174.75" y1="18.32" x2="804.7" y2="18.32"></line>
      <line class="cls-3" x1="190.96" y1="6.34" x2="190.96" y2="147.1"></line>
      <line class="cls-2" x1="233.94" y1="55.49" x2="737.76" y2="55.49"></line>
      <line class="cls-5" x1="201.42" y1="32.73" x2="234.2" y2="55.67"></line>
      <line class="cls-6" x1="201.85" y1="30.86" x2="201.18" y2="170.09"></line>
      <polyline class="cls-3" points="784.27 79.62 588.76 129.56 201.37 129.48"></polyline>
      <polyline class="cls-3" points="784.27 111.69 589.08 145.51 190.21 145.51"></polyline>
      <line class="cls-5" x1="758.2" y1="116.2" x2="758.2" y2="325.55"></line>
      <line class="cls-3" x1="783.03" y1="338.76" x2="784.19" y2="97.73"></line>
      <line class="cls-3" x1="856.14" y1="112.74" x2="856.14" y2="338.49"></line>
      <line class="cls-3" x1="889.97" y1="111.75" x2="784.27" y2="111.75"></line>
      <line class="cls-3" x1="889.97" y1="79.62" x2="784.27" y2="79.62"></line>
      <line class="cls-6" x1="795.54" x2="795.54" y2="84.65"></line>
      <line class="cls-2" x1="737.76" y1="91.73" x2="737.76" y2="55.49"></line>
      <line class="cls-5" x1="784.27" y1="32.41" x2="737.31" y2="55.71"></line>
      <line class="cls-6" x1="784.27" y1="79.62" x2="784.27" y2="32.41"></line>
      <line class="cls-3" x1="201.01" y1="32.44" x2="785.32" y2="32.44"></line>
      <line class="cls-2" x1="233.94" y1="55.49" x2="233.94" y2="129.48"></line>
      <line class="cls-2" x1="217.48" y1="43.96" x2="772.99" y2="43.96"></line>
      <line class="cls-2" x1="677.52" y1="39.81" x2="677.52" y2="106.77"></line>
      <line class="cls-2" x1="631.01" y1="39.81" x2="631.01" y2="119.01"></line>
      <line class="cls-2" x1="568.65" y1="39.81" x2="568.65" y2="129.48"></line>
      <line class="cls-6" x1="536.59" y1="39.81" x2="536.59" y2="129.48"></line>
      <line class="cls-6" x1="513.33" y1="39.81" x2="513.33" y2="129.48"></line>
      <line class="cls-2" x1="448.51" y1="39.81" x2="448.51" y2="129.48"></line>
      <line class="cls-6" x1="385.79" y1="39.81" x2="385.79" y2="129.48"></line>
      <line class="cls-6" x1="338.23" y1="39.81" x2="338.23" y2="129.48"></line>
      <line class="cls-5" x1="190.96" y1="124.37" x2="51.79" y2="124.37"></line>
      <line class="cls-5" x1="62.01" y1="102.53" x2="62.01" y2="263.54"></line>
      <line class="cls-5" y1="231.48" x2="94.77" y2="231.48"></line>
      <line class="cls-5" x1="83.5" y1="148.33" x2="83.5" y2="250.15"></line>
      <line class="cls-5" x1="71.87" y1="159.95" x2="468.59" y2="159.95"></line>
      <line class="cls-5" x1="450.27" y1="151.85" x2="450.27" y2="237.11"></line>
      <line class="cls-5" x1="737.76" y1="231.48" x2="440.58" y2="231.48"></line>
      <line class="cls-5" x1="518.27" y1="151.85" x2="518.27" y2="232.18"></line>
      <line class="cls-5" x1="513.33" y1="159.95" x2="601.24" y2="159.95"></line>
      <line class="cls-5" x1="564.24" y1="154.32" x2="564.24" y2="231.48"></line>
      <line class="cls-2" x1="74.69" y1="203.82" x2="74.69" y2="152.38"></line>
      <line class="cls-2" x1="55.84" y1="117.59" x2="55.84" y2="250.15"></line>
      <line class="cls-2" x1="66.41" y1="154.32" x2="300.79" y2="154.32"></line>
      <line class="cls-1" x1="588.05" y1="146.56" x2="737.76" y2="146.56"></line>
    </g>
    <g>
      <g>
        <path class="cls-7" d="M152.94,183.77h-8.49l-30.02,79.06h7.53l10.75-29.36,10.88-29.46c.49-1.58,1.34-4.07,2.53-7.48,1.17-3.41,1.95-5.57,2.3-6.52h.53c.43,1.3,1.25,3.58,2.43,6.85,1.19,3.25,2.04,5.63,2.53,7.16l10.65,29.46,10.75,29.36h7.53l-29.9-79.06Z"></path>
        <path class="cls-7" d="M198.82,223.36c0-12.91,3.08-23.06,9.25-30.44,6.17-7.39,14.16-11.08,23.99-11.08,6.1,0,11.24,1.67,15.44,5,4.2,3.33,7.3,7.23,9.3,11.67l-5.81,2.15c-4.59-8.68-10.94-13.02-19.04-13.02s-14.31,3.26-19.04,9.79c-4.73,6.53-7.1,15.17-7.1,25.92s2.4,19.63,7.21,25.98c4.8,6.35,11.12,9.52,18.93,9.52,4.95,0,9.18-1.33,12.69-3.98,3.51-2.65,6.2-5.99,8.07-10l6.13,2.04c-2.37,5.09-5.75,9.34-10.17,12.75-4.41,3.41-9.95,5.11-16.62,5.11-9.82,0-17.82-3.68-23.99-11.03-6.17-7.35-9.25-17.48-9.25-30.39Z"></path>
        <path class="cls-7" d="M284.19,262.84v-79.06h6.78v79.06h-6.78Z"></path>
        <path class="cls-7" d="M326.71,262.84v-79.06h29.58c7.46,0,13.39,2.08,17.8,6.24,4.41,4.16,6.62,9.68,6.62,16.57s-2.26,12.68-6.78,16.73c-4.52,4.05-10.4,6.08-17.64,6.08h-22.8v33.45h-6.78ZM333.48,223.68h21.51c5.81,0,10.38-1.43,13.72-4.3,3.33-2.87,5-7.14,5-12.8s-1.65-9.65-4.95-12.59c-3.3-2.94-7.96-4.41-13.98-4.41h-21.3v34.1Z"></path>
      </g>
      <g>
        <path class="cls-7" d="M109.64,304.35l7.86-20.46h1.67l7.89,20.46h-1.5l-2.41-6.47h-9.62l-2.41,6.47h-1.48ZM113.93,296.8h8.83l-3.15-8.4c-.61-1.65-1-2.74-1.19-3.29h-.11c-.08.21-.47,1.31-1.19,3.29l-3.18,8.4Z"></path>
        <path class="cls-7" d="M136.17,304.35v-20.46h7.72c1.95,0,3.45.53,4.5,1.58s1.58,2.36,1.58,3.93-.41,2.76-1.23,3.63c-.82.87-1.72,1.41-2.68,1.62.81.36,1.44.87,1.89,1.53.44.66.79,1.52,1.04,2.58.04.17.11.47.21.91.1.44.17.71.21.84s.1.35.19.68c.08.33.15.56.2.68.05.12.11.32.2.58s.17.48.24.64.17.35.28.58.24.45.37.68h-1.5c-.28-.53-.53-1.11-.75-1.73-.22-.62-.38-1.13-.48-1.53-.1-.4-.29-1.14-.55-2.24-.13-.49-.28-.93-.44-1.32-.16-.39-.39-.78-.68-1.18-.29-.4-.68-.7-1.16-.92s-1.05-.33-1.69-.33h-6.13v9.25h-1.31ZM137.48,293.96h6.3c1.53,0,2.72-.41,3.58-1.23.85-.82,1.28-1.92,1.28-3.28,0-1.29-.43-2.35-1.29-3.18-.86-.83-2.13-1.25-3.82-1.25h-6.05v8.94Z"></path>
        <path class="cls-7" d="M158.93,294.13c0-3.25.73-5.86,2.2-7.83,1.47-1.97,3.46-2.95,5.97-2.95s4.47.99,5.93,2.97c1.46,1.98,2.18,4.58,2.18,7.82s-.72,5.83-2.17,7.79c-1.45,1.96-3.43,2.94-5.95,2.94s-4.51-.98-5.97-2.94c-1.47-1.96-2.2-4.55-2.2-7.79ZM160.29,294.13c0,2.9.61,5.22,1.84,6.97,1.23,1.75,2.89,2.63,4.97,2.63s3.73-.87,4.95-2.61c1.22-1.74,1.83-4.07,1.83-6.98s-.62-5.34-1.84-7.05c-1.23-1.71-2.88-2.57-4.94-2.57s-3.74.86-4.97,2.6c-1.23,1.73-1.84,4.07-1.84,7.02ZM166.96,298.16l.91-.82,7.32,7.66-.91.77-7.32-7.61Z"></path>
        <path class="cls-7" d="M185.97,297.23v-13.34h1.31v13.23c0,2.16.51,3.8,1.53,4.92s2.41,1.69,4.17,1.69,3.21-.57,4.23-1.72c1.02-1.15,1.53-2.78,1.53-4.9v-13.23h1.33v13.34c0,2.42-.61,4.3-1.82,5.63-1.21,1.33-2.97,2-5.28,2s-3.96-.66-5.18-1.97c-1.22-1.32-1.83-3.2-1.83-5.66Z"></path>
        <path class="cls-7" d="M212.44,304.35v-20.46h1.31v20.46h-1.31Z"></path>
        <path class="cls-7" d="M223.36,285.02v-1.14h14.25v1.14h-6.44v19.33h-1.33v-19.33h-6.47Z"></path>
        <path class="cls-7" d="M247.19,304.35v-20.46h12.37v1.14h-11.07v8.14h10.02v1.11h-10.02v8.94h11.41v1.14h-12.71Z"></path>
        <path class="cls-7" d="M268.53,294.1c0-3.37.78-6,2.33-7.9,1.55-1.9,3.59-2.85,6.1-2.85,1.55,0,2.85.42,3.89,1.26,1.04.84,1.8,1.81,2.27,2.91l-1.14.45c-1.1-2.31-2.78-3.46-5.05-3.46-2.14,0-3.85.87-5.12,2.61-1.28,1.74-1.92,4.07-1.92,6.98s.65,5.32,1.96,7.04c1.31,1.72,3,2.58,5.08,2.58,1.32,0,2.46-.35,3.4-1.05.95-.7,1.67-1.58,2.16-2.64l1.19.4c-1.42,2.95-3.66,4.43-6.73,4.43-2.52,0-4.55-.96-6.1-2.87-1.55-1.91-2.33-4.54-2.33-7.89Z"></path>
        <path class="cls-7" d="M290.97,285.02v-1.14h14.25v1.14h-6.44v19.33h-1.33v-19.33h-6.47Z"></path>
        <path class="cls-7" d="M314.77,297.23v-13.34h1.31v13.23c0,2.16.51,3.8,1.53,4.92s2.41,1.69,4.17,1.69,3.21-.57,4.23-1.72c1.02-1.15,1.53-2.78,1.53-4.9v-13.23h1.33v13.34c0,2.42-.61,4.3-1.82,5.63-1.21,1.33-2.97,2-5.28,2s-3.96-.66-5.18-1.97c-1.22-1.32-1.83-3.2-1.83-5.66Z"></path>
        <path class="cls-7" d="M341.25,304.35v-20.46h7.72c1.95,0,3.45.53,4.5,1.58,1.05,1.05,1.58,2.36,1.58,3.93s-.41,2.76-1.23,3.63c-.82.87-1.72,1.41-2.68,1.62.81.36,1.44.87,1.89,1.53.44.66.79,1.52,1.04,2.58.04.17.11.47.21.91.1.44.17.71.21.84s.1.35.19.68c.08.33.15.56.2.68.05.12.11.32.2.58s.17.48.24.64.17.35.28.58.24.45.37.68h-1.5c-.28-.53-.53-1.11-.75-1.73-.22-.62-.38-1.13-.48-1.53-.1-.4-.29-1.14-.55-2.24-.13-.49-.28-.93-.44-1.32-.16-.39-.39-.78-.68-1.18-.29-.4-.68-.7-1.16-.92s-1.05-.33-1.69-.33h-6.13v9.25h-1.31ZM342.55,293.96h6.3c1.53,0,2.72-.41,3.58-1.23.85-.82,1.28-1.92,1.28-3.28,0-1.29-.43-2.35-1.29-3.18-.86-.83-2.13-1.25-3.82-1.25h-6.05v8.94Z"></path>
        <path class="cls-7" d="M362.98,304.35l7.86-20.46h1.67l7.89,20.46h-1.5l-2.41-6.47h-9.62l-2.41,6.47h-1.48ZM367.27,296.8h8.83l-3.15-8.4c-.61-1.65-1-2.74-1.19-3.29h-.11c-.08.21-.47,1.31-1.19,3.29l-3.18,8.4Z"></path>
        <path class="cls-7" d="M395.89,283.89h1.62l4.48,7.55c.17.28.47.8.91,1.56.43.76.76,1.32.96,1.67h.06c.49-.83,1.13-1.91,1.9-3.24l4.45-7.55h1.62l-7.32,12.03v8.43h-1.31v-8.43l-7.38-12.03Z"></path>
        <path class="cls-7" d="M432.17,294.1c0-3.37.78-6,2.33-7.9,1.55-1.9,3.59-2.85,6.1-2.85,1.55,0,2.85.42,3.89,1.26,1.04.84,1.8,1.81,2.27,2.91l-1.14.45c-1.1-2.31-2.78-3.46-5.05-3.46-2.14,0-3.85.87-5.12,2.61-1.28,1.74-1.92,4.07-1.92,6.98s.65,5.32,1.96,7.04,3,2.58,5.08,2.58c1.32,0,2.46-.35,3.4-1.05.95-.7,1.67-1.58,2.16-2.64l1.19.4c-1.42,2.95-3.66,4.43-6.73,4.43-2.52,0-4.55-.96-6.1-2.87-1.55-1.91-2.33-4.54-2.33-7.89Z"></path>
        <path class="cls-7" d="M455.78,294.1c0-3.23.74-5.84,2.21-7.8,1.48-1.97,3.46-2.95,5.96-2.95s4.5.98,5.95,2.95c1.45,1.97,2.17,4.58,2.17,7.83s-.73,5.83-2.18,7.79c-1.46,1.96-3.43,2.94-5.93,2.94s-4.51-.98-5.97-2.95c-1.47-1.97-2.2-4.57-2.2-7.8ZM457.14,294.1c0,2.88.6,5.2,1.8,6.97,1.2,1.77,2.87,2.65,5.01,2.65s3.76-.87,4.97-2.61c1.21-1.74,1.82-4.07,1.82-6.98s-.61-5.27-1.82-7.01c-1.21-1.74-2.87-2.61-4.97-2.61s-3.74.86-4.97,2.6c-1.23,1.73-1.84,4.06-1.84,7Z"></path>
        <path class="cls-7" d="M482.88,304.35v-20.46h1.56l9.02,14.64,2.44,3.97h.11c-.13-1.55-.2-3.28-.2-5.19v-13.42h1.33v20.46h-1.59l-9.25-14.98-2.21-3.63h-.09c.11,1.76.17,3.6.17,5.53v13.08h-1.31Z"></path>
        <path class="cls-7" d="M507.7,300.94l1.25-.48c.61.98,1.43,1.77,2.47,2.37,1.04.6,2.22.89,3.55.89,1.63,0,2.96-.4,3.99-1.21,1.03-.8,1.55-1.92,1.55-3.33,0-.68-.14-1.28-.43-1.8-.28-.52-.74-.97-1.38-1.36-.63-.39-1.2-.68-1.7-.88-.5-.2-1.22-.46-2.14-.78-.85-.28-1.5-.51-1.96-.67-.45-.16-1.03-.42-1.72-.78-.69-.36-1.22-.72-1.58-1.08-.36-.36-.68-.83-.95-1.41-.27-.58-.41-1.22-.41-1.91,0-1.59.59-2.85,1.77-3.77,1.18-.93,2.8-1.39,4.84-1.39,1.46,0,2.74.34,3.86,1.01,1.12.67,1.94,1.49,2.47,2.45l-1.14.45c-1.19-1.84-2.95-2.75-5.28-2.75-1.63,0-2.9.36-3.82,1.09-.92.73-1.38,1.7-1.38,2.91,0,.55.12,1.05.37,1.52.25.46.53.85.85,1.15.32.3.79.6,1.4.89.61.29,1.14.52,1.56.68.43.16,1.03.36,1.8.61.79.26,1.43.49,1.9.67s1.02.44,1.65.78c.62.34,1.11.69,1.46,1.06.35.37.65.83.91,1.39.26.56.38,1.18.38,1.86,0,1.8-.62,3.2-1.84,4.21-1.23,1.01-2.93,1.52-5.11,1.52-3.24,0-5.64-1.31-7.21-3.92Z"></path>
        <path class="cls-7" d="M528.92,285.02v-1.14h14.25v1.14h-6.44v19.33h-1.33v-19.33h-6.47Z"></path>
        <path class="cls-7" d="M552.76,304.35v-20.46h7.72c1.95,0,3.45.53,4.5,1.58,1.05,1.05,1.58,2.36,1.58,3.93s-.41,2.76-1.23,3.63c-.82.87-1.72,1.41-2.68,1.62.81.36,1.44.87,1.89,1.53.44.66.79,1.52,1.04,2.58.04.17.11.47.21.91.1.44.17.71.21.84s.1.35.19.68c.08.33.15.56.2.68.05.12.11.32.2.58s.17.48.24.64.17.35.28.58.24.45.37.68h-1.5c-.28-.53-.53-1.11-.75-1.73-.22-.62-.38-1.13-.48-1.53-.1-.4-.29-1.14-.55-2.24-.13-.49-.28-.93-.44-1.32-.16-.39-.39-.78-.68-1.18-.29-.4-.68-.7-1.16-.92-.48-.22-1.05-.33-1.69-.33h-6.13v9.25h-1.31ZM554.06,293.96h6.3c1.53,0,2.72-.41,3.58-1.23.85-.82,1.28-1.92,1.28-3.28,0-1.29-.43-2.35-1.29-3.18-.86-.83-2.13-1.25-3.82-1.25h-6.05v8.94Z"></path>
        <path class="cls-7" d="M577.13,297.23v-13.34h1.31v13.23c0,2.16.51,3.8,1.53,4.92s2.41,1.69,4.17,1.69,3.21-.57,4.23-1.72c1.02-1.15,1.53-2.78,1.53-4.9v-13.23h1.33v13.34c0,2.42-.61,4.3-1.82,5.63-1.21,1.33-2.97,2-5.28,2s-3.96-.66-5.18-1.97c-1.22-1.32-1.83-3.2-1.83-5.66Z"></path>
        <path class="cls-7" d="M601.96,294.1c0-3.37.78-6,2.33-7.9,1.55-1.9,3.59-2.85,6.1-2.85,1.55,0,2.85.42,3.89,1.26,1.04.84,1.8,1.81,2.27,2.91l-1.14.45c-1.1-2.31-2.78-3.46-5.05-3.46-2.14,0-3.85.87-5.12,2.61-1.28,1.74-1.92,4.07-1.92,6.98s.65,5.32,1.96,7.04c1.31,1.72,3,2.58,5.08,2.58,1.32,0,2.46-.35,3.4-1.05.95-.7,1.67-1.58,2.16-2.64l1.19.4c-1.42,2.95-3.66,4.43-6.73,4.43-2.52,0-4.55-.96-6.1-2.87-1.55-1.91-2.33-4.54-2.33-7.89Z"></path>
        <path class="cls-7" d="M625.56,294.1c0-3.37.78-6,2.33-7.9,1.55-1.9,3.59-2.85,6.1-2.85,1.55,0,2.85.42,3.89,1.26,1.04.84,1.8,1.81,2.27,2.91l-1.14.45c-1.1-2.31-2.78-3.46-5.05-3.46-2.14,0-3.85.87-5.12,2.61-1.28,1.74-1.92,4.07-1.92,6.98s.65,5.32,1.96,7.04c1.31,1.72,3,2.58,5.08,2.58,1.32,0,2.46-.35,3.4-1.05.95-.7,1.67-1.58,2.16-2.64l1.19.4c-1.42,2.95-3.66,4.43-6.73,4.43-2.52,0-4.55-.96-6.1-2.87-1.55-1.91-2.33-4.54-2.33-7.89Z"></path>
        <path class="cls-7" d="M650.81,304.35v-20.46h1.31v20.46h-1.31Z"></path>
        <path class="cls-7" d="M662.9,294.1c0-3.23.74-5.84,2.21-7.8,1.48-1.97,3.46-2.95,5.96-2.95s4.5.98,5.95,2.95c1.45,1.97,2.17,4.58,2.17,7.83s-.73,5.83-2.18,7.79c-1.46,1.96-3.43,2.94-5.93,2.94s-4.51-.98-5.97-2.95c-1.47-1.97-2.2-4.57-2.2-7.8ZM664.26,294.1c0,2.88.6,5.2,1.8,6.97,1.2,1.77,2.87,2.65,5.01,2.65s3.76-.87,4.97-2.61c1.21-1.74,1.82-4.07,1.82-6.98s-.61-5.27-1.82-7.01c-1.21-1.74-2.87-2.61-4.97-2.61s-3.74.86-4.97,2.6c-1.23,1.73-1.84,4.06-1.84,7ZM669.51,281.39l3.18-4.82h1.96l-3.89,4.82h-1.25Z"></path>
        <path class="cls-7" d="M689.99,304.35v-20.46h1.56l9.02,14.64,2.44,3.97h.11c-.13-1.55-.2-3.28-.2-5.19v-13.42h1.33v20.46h-1.59l-9.25-14.98-2.21-3.63h-.09c.11,1.76.17,3.6.17,5.53v13.08h-1.31Z"></path>
      </g>
    </g>
  </g>
  <polyline class="cls-4" points="736.56 315.54 782.97 338.75 898.99 338.75"></polyline>
</svg>